<svg width="64" height="64" viewBox="0 0 64 64" xmlns="http://www.w3.org/2000/svg">

  <defs>
    <linearGradient id="glow64G" x1="0" y1="0" x2="0" y2="1">
      <stop offset="0%" stop-color="#B9F6CA"/>
      <stop offset="100%" stop-color="#00E676"/>
    </linearGradient>
    <style>
      .outline { stroke:#0d1016; stroke-width:2; }
      .panel-b { fill:#00E676; }
      .panel-c { fill:#76FF03; }
      .panel-d { fill:#CCFF90; }
      .core    { fill:url(#glow64G); }
    </style>
  </defs>

<g id="enemy">
  <path class="panel-b outline" d="M32 12 C44 12, 52 20, 52 30 C52 40, 44 48, 32 48 C20 48, 12 40, 12 30 C12 20, 20 12, 32 12 Z"/>
  <circle id="eyeWhite" cx="32" cy="29" r="7" fill="#e8f5e9" class="outline"/>
  <circle id="iris" cx="32" cy="29" r="4" fill="#1b5e20"/>
  <circle id="pupil" cx="32" cy="29" r="2" fill="#0a3d12"/>
  <path id="teeth" d="M24 40 h4 v3 h-4 Z M30 40 h4 v3 h-4 Z M36 40 h4 v3 h-4 Z" class="panel-c"/>
  <path id="antennaL" d="M20 18 q-6 -6 -8 -2" stroke="#CCFF90" stroke-width="2" fill="none"/>
  <path id="antennaR" d="M44 18 q6 -6 8 -2" stroke="#CCFF90" stroke-width="2" fill="none"/>
</g>
</svg>